<svg xmlns="http://www.w3.org/2000/svg" version="1.2" width="62mm" height="62mm" viewBox="200 3880 5700 1" xml:space="preserve">
 <path fill="#F15F2C" d="M 3045,6737 L 187,6737 187,1022 5902,1022 5902,6737 3045,6737 Z"/>
    <path fill="#fff" d="M 1365,4351 L 2148,1640 3351,1640 3109,2480 C 3106,2485 3104,2490 3102,2495 L 2463,4714 3058,4714 C 2809,5336 2614,5824 2475,6177 1375,6165 1067,5377 1336,4445 Z M 2480,6179 L 3930,4092 3315,4092 3851,2754 C 4769,2850 5201,3573 4946,4448 4675,5387 3575,6179 2504,6179 2494,6179 2487,6179 2480,6179 L 2480,6179 Z"/>
    <div xmlns="" id="divScriptsUsed" style="display: none"/><script xmlns="" id="globalVarsDetection" src="chrome-extension://cmkdbmfndkfgebldhnkbfhlneefdaaip/js/wrs_env.js"/></svg>