<svg xmlns="http://www.w3.org/2000/svg" viewBox="0 0 72 72"><defs><style>.cls-1{fill:#8c9eff;}.cls-2{fill:#fff;}</style></defs><g id="Слой_2" data-name="Слой 2"><g id="Слой_1-2" data-name="Слой 1"><path class="cls-1" d="M72,62A10,10,0,0,1,62,72H10A10,10,0,0,1,0,62V10A10,10,0,0,1,10,0H62A10,10,0,0,1,72,10Z"/><path class="cls-2" d="M54.52,19.63A42.67,42.67,0,0,0,44,16.37a.15.15,0,0,0-.16.08,27.74,27.74,0,0,0-1.31,2.69,38.71,38.71,0,0,0-11.77,0c-.36-.85-.88-1.88-1.33-2.69a.17.17,0,0,0-.17-.08,42.46,42.46,0,0,0-10.48,3.26.11.11,0,0,0-.07.06A43.42,43.42,0,0,0,11.13,49a.15.15,0,0,0,.07.12,42.47,42.47,0,0,0,12.86,6.5.16.16,0,0,0,.18-.06,30.7,30.7,0,0,0,2.63-4.28.16.16,0,0,0-.09-.22,29.07,29.07,0,0,1-4-1.92.16.16,0,0,1,0-.27c.27-.21.54-.42.79-.63a.15.15,0,0,1,.17,0,30.44,30.44,0,0,0,25.88,0,.15.15,0,0,1,.17,0l.8.63a.16.16,0,0,1,0,.27,26.44,26.44,0,0,1-4,1.91.17.17,0,0,0-.09.23,35,35,0,0,0,2.63,4.28.16.16,0,0,0,.18.06,42.56,42.56,0,0,0,12.88-6.5A.19.19,0,0,0,62.2,49a43.16,43.16,0,0,0-7.62-29.31A.12.12,0,0,0,54.52,19.63ZM28.13,43.15A5,5,0,0,1,23.5,38a4.92,4.92,0,0,1,4.63-5.19A4.9,4.9,0,0,1,32.76,38,4.92,4.92,0,0,1,28.13,43.15Zm17.11,0A5,5,0,0,1,40.61,38a4.92,4.92,0,0,1,4.63-5.19A4.9,4.9,0,0,1,49.87,38,4.91,4.91,0,0,1,45.24,43.15Z"/></g></g><div xmlns="" id="divScriptsUsed" style="display: none"/><script xmlns="" id="globalVarsDetection" src="chrome-extension://cmkdbmfndkfgebldhnkbfhlneefdaaip/js/wrs_env.js"/></svg>