<svg xmlns="http://www.w3.org/2000/svg" viewBox="0 0 72 72"><defs><style>.cls-1{fill:#29b6f6;}.cls-2{fill:#fff;}.cls-3{fill:#b0bec5;}.cls-4{fill:#cfd8dc;}</style></defs><g id="Слой_2" data-name="Слой 2"><g id="Слой_1-2" data-name="Слой 1"><path class="cls-1" d="M72,62A10,10,0,0,1,62,72H10A10,10,0,0,1,0,62V10A10,10,0,0,1,10,0H62A10,10,0,0,1,72,10Z"/><path class="cls-2" d="M58.19,16.23l-7.4,38.2a2.4,2.4,0,0,1-2.4,1.8,2.63,2.63,0,0,1-1.8-.6l-16.4-13.4-8-4L12,35.43s-1.8-.6-1.8-2c0-1.2,1.8-1.8,1.8-1.8l42.6-17a10.87,10.87,0,0,1,2.2-.4c.6,0,1.2.2,1.2,1A3.5,3.5,0,0,1,58.19,16.23Z"/><path class="cls-3" d="M36.19,47.23,29.39,54a.88.88,0,0,1-.6.2h-.4l2-12Z"/><path class="cls-4" d="M50,22.63a1,1,0,0,0-1.4-.2l-26.4,15.8S26.39,50,27,52s1.2,2,1.2,2l2-12,19.6-18.2A.75.75,0,0,0,50,22.63Z"/></g></g><div xmlns="" id="divScriptsUsed" style="display: none"/><script xmlns="" id="globalVarsDetection" src="chrome-extension://cmkdbmfndkfgebldhnkbfhlneefdaaip/js/wrs_env.js"/></svg>