<svg xmlns="http://www.w3.org/2000/svg" viewBox="0 0 72 72"><defs><style>.cls-1{fill:#1976d2;}.cls-2{fill:#fff;}</style></defs><g id="Слой_2" data-name="Слой 2"><g id="Слой_1-2" data-name="Слой 1"><path class="cls-1" d="M72,62A10,10,0,0,1,62,72H10A10,10,0,0,1,0,62V10A10,10,0,0,1,10,0H62A10,10,0,0,1,72,10Z"/><path class="cls-2" d="M59.87,24.08a2.34,2.34,0,0,0,.13-.83c0-.72-.53-1.25-1.7-1.25H53.06a2.37,2.37,0,0,0-2.29,1.6,63.07,63.07,0,0,1-7,11.15C42.53,36,41.91,36,41.25,36A1.49,1.49,0,0,1,40,34.4V24c0-1.39-.35-2-1.46-2h-9.3A1.22,1.22,0,0,0,28,23.28c0,1.34,1.8,1.66,2,5.39v7.25c0,1.76-.31,2.08-1,2.08-1.78,0-5.28-6-7.63-13.86-.5-1.55-1-2.14-2.33-2.14H13.78c-1.53,0-1.78.75-1.78,1.55,0,1.44,1.2,9.24,7.75,18.2C24.5,48.25,30.76,52,36.3,52c3.35,0,3.7-.85,3.7-2.19V43.87c0-1.6.37-1.87,1.43-1.87.77,0,2.32.5,5.32,4,3.46,4,4.09,6,6.07,6h5.24c1.21,0,1.91-.51,1.94-1.5a3.05,3.05,0,0,0-.11-.85A29.64,29.64,0,0,0,55.5,43c-1.23-1.49-2.44-3-3-3.76A1.94,1.94,0,0,1,52,38a2.8,2.8,0,0,1,.5-1.21S59.21,27.28,59.87,24.08Z"/></g></g><div xmlns="" id="divScriptsUsed" style="display: none"/><script xmlns="" id="globalVarsDetection" src="chrome-extension://cmkdbmfndkfgebldhnkbfhlneefdaaip/js/wrs_env.js"/></svg>